<?xml version="1.0" encoding="utf-8"?>
<!-- Generator: Adobe Illustrator 19.2.1, SVG Export Plug-In . SVG Version: 6.00 Build 0)  -->
<svg version="1.1" id="layer" xmlns="http://www.w3.org/2000/svg" xmlns:xlink="http://www.w3.org/1999/xlink" x="0px" y="0px"
	 viewBox="0 0 652 652" style="enable-background:new 0 0 652 652;" xml:space="preserve">
<style type="text/css">
	.st0{fill:#FFDE00;}
</style>
<path class="st0" d="M217.3,353.2c0.6-2,0.6-3.9,0.5-6.1C221.2,347.8,221,352.9,217.3,353.2 M195.3,389.2c0,0-0.7,3.6-2.8,2.6
	c-2.1-1-2.6-4.3-2.6-4.3S192.4,388.6,195.3,389.2 M211.1,395.1c-2.4,3.9-9-0.4-9-0.4c1.9-1.5,3.1-4,3.5-7.2
	C209,387.7,213.7,390.9,211.1,395.1 M184.2,284.4c-2.7-1.1-2-9.5-2-9.5c0.7,3.8,5.2,6.5,9.1,4.2
	C191.3,279.1,187.3,285.7,184.2,284.4 M178,349.9c-2,0.4-4.6-0.5-6.1-1.6c-4.9-3.8-6.9-13.8-7.3-21.6c2.1,4.4,5.4,11.5,11.5,9.6
	c2.1-0.6,4.5-3.4,4.5-3.4C182.5,338.1,184.1,348.8,178,349.9 M211.1,269.2c2,0.1,4,1.3,3.9,2.9c0,2.5-2.4,3.1-4.2,2.9
	c-2.5-0.2-3.6-1.6-3.6-3.1C207.3,270.2,209.1,269.1,211.1,269.2 M184.6,259c2.9-7,10.5-8.2,10.5-8.2c-5.9-0.2-24.5,2.8-26.2,21.3
	c-0.6,6.1,1.7,11.2,4.2,15.5c-3.2-2.4-6.9-6.5-7.5-11.9c-0.5-4.5,1.9-11.3,1.9-11.3c-4.5,5.3-9.3,11.9-8.2,20.9
	c1,8.4,6.5,14,10.3,18.7c-2.8-1.3-4.5-2.7-7-5.4c0.8,10,4,17.8,11,21.6c-9-0.9-10.8-7.2-13.4-14.3c-1.8-5-4.8-7.7-7.5-10.8
	c4.2,0.9,6.6,3.5,8.7,6.6c-1.3-8.7-7.6-12.4-16.4-13.6c3.7-3.4,9.9-0.1,12.8,1.6c0,0-1.8-3.6-3.4-5.3c-4.3-4.6-13.8-3.5-19.5-1.6
	c2-3.6,7.6-6.3,12.4-4.9c-3-2.6-6.6-4.4-11.2-4.7c-7.9-0.5-14.6,3.8-18.5,6.8c1-5.1,5.1-7.1,8.9-9.4c-13.3-2.2-20,6.1-24.4,14.3
	c-0.4-5.1,4-10.8,4-10.8c-16.3,6.7-13.9,25-13.9,25c-3-1.8-2.9-8.6-1.9-11.7c0,0-3.3,4.7-3.4,11.3c-0.1,6.8,4.6,14,4.6,14
	c-4.9-0.7-7.9-10.4-7.9-10.4c-2.7,13.7,9,24.8,9,24.8c-5.3-0.6-9.8-7.1-9.8-7.1c1.9,13.5,13.8,20.8,13.8,20.8c-3.7,0.8-9.2-3-9.2-3
	c4.6,10.4,11.4,15.4,11.4,15.4c-4.2,0.2-8.6-4.8-8.6-4.8c-0.4,4.8,2.3,11.2,2.3,11.2c-4.3-1.5-5.5-7.6-5.5-7.6
	c-3.5,4.9-2.8,12.1-2.8,12.1c-4.1-2.7-3.8-8.5-3.8-8.5c-4,2-6.4,10-6.4,10c-2-4.3,0.1-9.4,0.1-9.4c-5.6,1.4-9.1,8-9.1,8
	c-0.4-4,2.2-8.8,2.2-8.8c-4.4,0.1-8.2,6.4-8.2,6.4c-0.8-4.1,3.1-8.7,3.1-8.7c-4.8-0.5-9,4.7-9,4.7c-0.6-4.8,4.1-8.3,4.1-8.3
	c-5.2-1.2-9,3.3-9,3.3c-0.7-5,4.8-8.5,4.8-8.5c-4.1-1.8-8.6,1.9-8.6,1.9c-0.5-5.1,5.2-8,5.2-8c-3.5-2.4-8,0-8,0c0.7-4.2,6-5.3,6-5.3
	c-3-3.4-7.4-3.1-7.4-3.1c1.5-3.7,6.3-3,6.3-3c-2.3-3.3-6.6-4.5-6.6-4.5c2.7-2.3,6.4-0.7,6.4-0.7c-1.1-3.7-5.4-5.8-5.4-5.8
	c3.4-1.1,6.7,1.1,6.7,1.1c-0.4-3.3-4-6.4-4-6.4c4,0.2,6.7,3.1,6.7,3.1c0-2.9-2-6.4-2-6.4c3.2,1,6,4.2,6,4.2c0.3-2.7-0.4-4.3-0.4-4.3
	c5.3,2,8.7,6,11.5,10.5c-1.4-8.3-6.7-14.3-15-15c-14.5-1.2-23.7,15.2-23.7,27.2c0,14,4.8,23.4,11.1,32.5
	c7.3,10.6,19.9,18.7,31.6,21.1c-3.8,1.2-7.3,4.2-7.3,7.7c6.1,0.4,11.1,3.2,13.7,6.5h21.5c5.2,0,10-0.1,11.6-0.5
	c4-0.8,5.8-9.8,10.5-9.6c4.7,0.2,3.3,7.8-0.7,8c-1.3,0.1-1.9-0.6-3-0.9c4.2,10.2,16.9-1.3,11-8.4c6.9,0.3,6.4,9.2,1.6,10.1
	c7.5,0.7,9.7-6.7,6.2-12.1c-3.4-5.4-10.3-4.4-15.8-1.8c-5.5,2.6-10.4,4.6-14.1,5.1c-2.9,0.4-5.8,0.2-7.7-0.9
	c-5.6-3.3,4.4-8.8,6.8-10.3c8.9-5.4,18.3-11.8,19.2-24.6c0.7-9.5-2.9-14.5-5.9-20.4c-2.4-4.8-5-9.7-5.4-15.9
	c-0.5-8.5,5.7-14.9,13.4-14.5c10.7,0.5,16.2,9,16.9,19.7c0.3,4.2-0.7,9.3-0.9,13.6c-1.2,17.8,7.3,26.9,16.9,35.2
	c8.7,7.6,17.3,12.5,28.1,17.1c0.7,6.8,4.9,14.4,13.1,10.8c4.2,7.3,20,5.9,17.8-4.7c-1-5-8.4-5.7-7.8-11.3c0.2-2.7,3.4-4.2,6.2-3.2
	c3,1,4.4,5.6,4.2,8.9c4.7-7.9-0.1-19.4-9.8-17.1c-5,1.2-9.8,9.8-9.8,9.8c-6.3-3.4-12.3-6.8-12.3-6.8c14.4-0.7,23.6-7.1,28.9-16.9
	c7,1.6,11.7-3.2,9.8-8.9c0,0,6.1,1.9,6.8,6.9c0.7,5-6,6.1-9.7,3.7c0,0,3.2,7.6,9.3,6.1c6.1-1.5,5.5-8,4.1-10.6
	c-1.3-2.6-6.9-7.5-5.4-10.8c1.4-3.3,8.1-1.1,7.1,7.5c4.9-6.8,0.6-17.6-7.3-17.6c-5.8,0-8.1,5-9.6,10.1c0,0-1.9-0.7-4-0.2
	c-1.2-8.2-6.4-13.6-14.8-16.9c-7.5-2.9-14.8-8-15.5-16.2c-0.3-3.9,0.9-7,3.7-8.4c7.5-3.8,12.5,4.4,13.8,9.8
	c-0.1-6.4,2.3-9.4,5.2-12.7c-2.3-3.8-6.7-7.1-12.7-6.3c-4.1,0.5-8.1,2.7-8.1,2.7c1.9-4.4,5.3-12.2,12.8-12.6
	c6.1-0.3,9,5.1,10.8,10.3c1-9.9,6.3-16.8,11.2-22c-5.8,3.4-8.7-3.8-14.3-3.8c-7.9,0-11.8,8.8-18.5,9.6c-2.8,0.3-4.9-1.7-6.1-2.6
	C183.3,271.4,181.6,266,184.6,259"/>
<path class="st0" d="M328,306.3c0-25.5-13.3-44.1-34.3-44.1c-2.9,0-7.8,0.1-10.6,0.3v76.9c0.4,6.6,4.3,10.1,13.5,10.1
	C318.4,349.4,328,331.5,328,306.3 M249.8,350.5c2.8-0.1,8.4-0.8,10.2-1.5c3.4-1.3,4.3-3.8,4.3-6.9v-71.6c0-3.1-1-5.7-4.3-7.1
	c-3.2-1.5-7.1-2.1-9.7-2.4V258h46.2c19.6,0,52.7,10.1,52.7,48.4c0,32.6-27.9,47.2-55.5,47.2h-44V350.5z"/>
<path class="st0" d="M353.3,350.8c2.4-0.1,4.1-0.4,6-1.1c2.7-0.8,3.6-3.1,3.6-6.2v-40.7c-0.1-2.9-1.5-5.9-3.6-7.4
	c-1.7-1.1-4.5-2.1-7-2.2v-2.7l25.8-1.7l1,1v9.5h0.3c5.9-7.6,12.3-11.1,18.6-11.1c5.5,0,10.2,4.3,10.2,10.4c0,5.6-3.4,10.2-8.8,10.2
	c-5.2,0-8.8-2.5-8.8-7.7c0-2,1.1-3.6,1.3-5.5c-6.6,0-11.2,5.5-12.7,8v39.2c0,3.1,1.4,5.3,3.8,6.3c2.4,1,6.9,1.5,9.2,1.7v2.8h-38.8
	V350.8z"/>
<path class="st0" d="M449.8,313c0-10.4-1.3-21.7-10.8-21.7c-7.7,0-12.5,8.4-12.9,22L449.8,313z M408.8,321.2
	c0-17.4,11.1-33.3,30.8-33.3c20.2,0,27.5,12.9,27.5,27.3v1.5h-40.9v1.5c0,17.4,5.6,30,20,30c9.8,0,14.4-3.5,19.6-12.6l2.7,1.8
	c-5,10.2-14.8,17.9-27.6,17.9C418.8,355.4,408.8,340,408.8,321.2"/>
<path class="st0" d="M515.6,299.5c0.7-1,1.3-2.2,1.3-3.1c0-2-5.9-3.5-7.7-3.9v-2.8h24.5v2.7c-6.9,2-11.1,5.3-13.6,8.3
	c-1.8,2.1-7.7,9.5-12.9,16c5.5,8,15.1,23.5,17.6,27c2.9,4.1,4.8,6,10.6,7v2.9h-34v-2.9c3.4-0.3,7.4-1.3,7.4-2.8
	c0-0.7-0.8-2.4-1.7-3.8c-4.1-6.9-7.3-11.5-10.8-16.9c-3.8,4.5-9.8,12.5-12.7,16.7c-0.7,1-1.1,2.2-1.1,3.1c0,2,6.4,3.5,8.3,3.9v2.8
	h-24.5v-2.7c6.9-2,10.4-5.3,12.9-8.3c2-2.2,9.5-11.8,15.1-18.6c-3.4-4.9-11.5-17.2-16.7-25.1c-3.6-5.5-7.1-6.3-10.2-6.3v-2.9h32.8
	v2.9c-2.8,0-6.6,0.8-6.6,2c0,0.8,0.6,1.8,1.3,3.1c1,1.8,5.5,9,10.2,16C508.6,309.3,513,303.3,515.6,299.5"/>
<path class="st0" d="M573.9,313c0-10.4-1.3-21.7-10.8-21.7c-7.7,0-12.5,8.4-12.9,22L573.9,313z M532.8,321.2
	c0-17.4,11.1-33.3,30.8-33.3c20.2,0,27.4,12.9,27.4,27.3v1.5h-40.9v1.5c0,17.4,5.6,30,20,30c9.8,0,14.4-3.5,19.6-12.6l2.7,1.8
	c-5.1,10.2-14.8,17.9-27.6,17.9C542.9,355.4,532.8,340,532.8,321.2"/>
<path class="st0" d="M591.1,350.8c2.4-0.1,4.2-0.4,6-1.1c2.7-0.8,3.8-3.1,3.8-6.2v-79.3c-0.1-3.4-1.5-6.6-3.8-8.1
	c-1.7-1.1-7.3-2.5-9.8-2.7v-2.8l28.6-1.5l1,1v92.6c0,3.1,1.3,5.3,3.8,6.4c2.1,0.8,3.6,1.4,6.2,1.7v2.8h-35.7V350.8z"/>
<path class="st0" d="M262.4,392.1v-17.7c0-1-0.4-1.7-1.4-2.3c-0.8-0.4-2.4-0.7-3.1-0.8v-1h15.2v1c-0.8,0.1-2.4,0.3-3.2,0.6
	c-1.1,0.4-1.4,1.2-1.4,2.2v17.5c0,4.6,1.7,8.3,7.7,8.3c6.1,0,8.4-4.2,8.4-8.4v-12.6c0-3.5-0.5-5.4-1.5-6.1c-1-0.7-3.5-1.3-4.4-1.4
	v-1H292v1c-0.8,0.1-3.1,0.5-4.2,1.1c-1.1,0.8-1.4,2.9-1.4,6.1v13.1c0,7.3-6.2,10.3-11.5,10.3C266.7,401.9,262.4,397.6,262.4,392.1"
	/>
<path class="st0" d="M306.9,376.6v16c0,3.5,0.5,5.4,1.5,6.2c0.8,0.6,3.6,1.4,4.4,1.4v1h-13.3v-1c0.8-0.1,3.4-0.7,4.2-1.2
	c1-0.8,1.4-2.7,1.4-6.2V377c0-1.4-0.4-2.7-1.4-3.6c-1-0.9-3.1-1.8-4.6-2v-1h10.2l17.7,22.5v-13.9c0-3.3-0.5-5.4-1.5-6.2
	c-0.8-0.6-3.5-1.3-4.4-1.4v-1h13.3v1c-0.8,0.1-3.3,0.5-4.2,1.2c-1.1,0.8-1.4,2.9-1.4,6.1v22.8h-2.3L306.9,376.6z"/>
<path class="st0" d="M343.7,400.2c0.8,0,2.7-0.3,3.3-0.5c1.1-0.4,1.4-1.2,1.4-2.2v-23.2c0-1-0.3-1.7-1.4-2.2
	c-0.8-0.3-2.4-0.8-3.3-0.9v-1H359v1c-0.8,0.1-2.5,0.4-3.3,0.6c-1.1,0.4-1.4,1.2-1.4,2.2v23.2c0,1,0.4,1.7,1.4,2.2
	c0.5,0.2,2.5,0.6,3.3,0.7v1h-15.3V400.2z"/>
<path class="st0" d="M371.5,374.6c-0.4-1.1-0.9-1.8-2-2.5c-0.8-0.5-2-0.8-3-0.9v-1h15.2v1c-2.5,0.3-4.3,0.8-4.3,1.7
	c0,0.3,0.1,0.8,0.2,1.1c0.5,1.5,4.4,12.6,7.1,20.3c2-4.8,4.9-11.8,5.7-14.1c1.2-3.2,2.1-5.2,2.1-6.7c0-1.4-2.9-2.1-5.2-2.3v-1h12.2
	v1c-0.9,0-2.1,0.4-2.9,0.9c-1.3,0.8-1.9,2.1-2.5,3.6c-1.4,3.3-8.1,19.3-10.8,25.8h-2.4C377.9,392.7,372.6,377.8,371.5,374.6"/>
<path class="st0" d="M406.6,400.2c0.8-0.1,2.9-0.3,3.5-0.6c1.1-0.4,1.4-1.2,1.4-2.2v-23c0-1-0.3-1.8-1.4-2.2
	c-0.9-0.4-2.7-0.8-3.5-0.9v-1h25.7v7.5h-1.2c-0.5-2-2.9-5.7-5.1-6c-1.1-0.1-2.3-0.2-3.7-0.2h-4.8v12.9h3.4c2.5,0,3.3-0.8,3.9-1.4
	c0.8-0.8,1.4-3,1.5-4.2h1.2v12.7h-1.2c-0.1-1.4-0.9-3.8-1.5-4.4c-0.6-0.7-1.5-1.4-3.9-1.4h-3.4v10c0,3.5,0.8,4,5.1,4
	c2.9,0,5.9,0,7-1c1.6-1.6,3.3-5.2,3.9-6.7h1.1l-0.6,9.1h-27.5V400.2z"/>
<path class="st0" d="M458.3,385c4,0,7.4-1.6,7.4-6.8c0-4.9-2.8-6.6-6.4-6.6h-2.8V385H458.3z M465.2,394.1c-0.5-4.2-1.4-7.8-6.1-7.8
	h-2.6v11c0,1,0.3,1.8,1.4,2.2c0.6,0.2,2.4,0.5,3.3,0.6v1h-15.4v-1c0.8,0,2.8-0.3,3.3-0.5c1.1-0.4,1.4-1.2,1.4-2.3v-23.1
	c0-1-0.3-1.9-1.4-2.3c-0.8-0.3-2.5-0.6-3.3-0.7v-1h16.1c5.7,0,10.6,2.1,10.6,7c0,4.9-4.7,7-8.3,8v0.4c2.2,0.3,5.8,1.4,6.7,4.7
	c0.7,2.5,0.9,4.4,1.5,6.6c0.5,1.8,1.4,2.1,2.2,2.1c1.1,0,2.1-1.3,2.1-4.1v-1h1.3l0,1c-0.1,4-1.7,6.6-6.2,6.6
	C467.8,401.7,465.9,399.5,465.2,394.1"/>
<path class="st0" d="M491.5,399.5l-1.5,2.1h-1.5l-0.3-10.9h1.1c1.8,4.6,5,9.7,10.3,9.7c3.8,0,5.7-2.4,5.7-5.6c0-2.7-1.6-4.6-4.7-5.7
	c-2.3-0.9-4.1-1.5-6.2-2.3c-3.7-1.6-5.4-4.4-5.4-8.4c0-4.8,3.8-8.7,9.7-8.7c2.8,0,5.6,1.1,7.2,2.2l1.4-1.9h1.6l0.2,10.5h-1
	c-2-5.6-4.7-9.3-9.4-9.3c-2.3,0-4.6,1.7-4.6,4.8c0,2.7,1.5,4.3,4.4,5.6c2.1,1,4.2,1.6,6,2.4c3.7,1.6,6.1,3.7,6.1,8.5
	c0,5.5-4.5,9.5-10.9,9.5C495.4,401.8,493,400.5,491.5,399.5"/>
<path class="st0" d="M522.4,400.2c0.8,0,2.7-0.3,3.3-0.5c1.1-0.4,1.4-1.2,1.4-2.2v-23.2c0-1-0.3-1.7-1.4-2.2
	c-0.8-0.3-2.4-0.8-3.3-0.9v-1h15.3v1c-0.8,0.1-2.5,0.4-3.3,0.6c-1.1,0.4-1.4,1.2-1.4,2.2v23.2c0,1,0.4,1.7,1.4,2.2
	c0.5,0.2,2.5,0.6,3.3,0.7v1h-15.3V400.2z"/>
<path class="st0" d="M554.5,400.2c0.8,0,3.1-0.4,3.7-0.6c1.1-0.4,1.4-1.3,1.4-2.3v-25.7h-1.6c-1,0-2.4,0-3.5,0.2
	c-2,0.3-4.4,4.6-4.9,6.6h-1.1v-8.1h28.3v8.1h-1.1c-0.5-2-3-6.3-4.9-6.6c-1-0.1-2.3-0.2-3.5-0.2h-1.6v25.5c0,1,0.3,1.8,1.4,2.3
	c0.5,0.2,2.8,0.7,3.7,0.8v1h-16.1V400.2z"/>
<path class="st0" d="M592.2,400.2c0.8,0,3.1-0.3,3.7-0.5c1.1-0.4,1.4-1.3,1.4-2.3v-7.1c0-1.4-0.4-2.3-1.3-4.1
	c-1.6-3.2-4.5-8.5-6-11.1c-0.8-1.4-1.8-2.4-2.8-3.1c-0.8-0.4-2-0.7-2.9-0.8v-1h16v1c-1.6,0.1-4.5,0.5-4.5,1.5c0,0.5,3.5,7.4,7,13.4
	c2-3.3,7.2-11.9,7.2-12.9c0-1.4-2.6-1.9-4.6-2v-1h11.6v1c-0.8,0.1-2,0.5-2.6,0.9c-1.2,0.7-1.9,1.4-2.8,2.7
	c-1.4,1.9-4.7,7.6-6.7,11.1c-1.2,2.1-1.5,3.5-1.5,5.6v5.6c0,1,0.4,1.8,1.4,2.3c0.5,0.2,2.9,0.7,3.7,0.8v1h-16.2V400.2z"/>
</svg>
